/* XPM */
static char *bottom_right_active[] = {
/* columns rows colors chars-per-pixel */
"6 6 13 1",
"  c #313108830000",
". c #353509990000",
"X c #51510A290000",
"o c #565608C10000",
"O c #6B6B05A90000",
"+ c #636309840000",
"@ c #8989000000C3",
"# c #91910000009A",
"$ c #979701010303",
"% c #959500000389",
"& c #9A9A01010374",
"* c #9B9B010102EE",
"= c #9C9C000002E4",
/* pixels */
"   +@#",
"   +%#",
"  .O$%",
"XXo#&$",
"*=&&*$",
"=****&"
};
