/* XPM */
static char *bottom_left_active[] = {
/* columns rows colors chars-per-pixel */
"6 6 13 1",
"  c #313108830000",
". c #3333098F0000",
"X c #4F4F0A1F0000",
"o c #51510A290000",
"O c #565608C10000",
"+ c #6B6B05A90000",
"@ c #636309840000",
"# c #8989000000C3",
"$ c #929200000217",
"% c #94940000020C",
"& c #959500000389",
"* c #98980101037E",
"= c #9C9C000002E4",
/* pixels */
"$#@.  ",
"%&@...",
"%*+...",
"**$OoX",
"***===",
"*=*==="
};
