/* XPM */
static char *close_pressed[] = {
/* columns rows colors chars-per-pixel */
"27 23 39 1",
"  c black",
". c #0808020202E4",
"X c #1C1C09090B2A",
"o c #22220B0B0E18",
"O c #28280D0D1107",
"+ c #2C2C0E0E1279",
"@ c #2F2F0F0F1370",
"# c #3434111115E3",
"$ c #3737121216D9",
"% c #3A3A131317D0",
"& c #3B3B1313194C",
"* c #4E4E19191F90",
"= c #52521B1B2289",
"- c #58581D1D2476",
"; c #5B5B1E1E266E",
": c #5C5C1E1E26E9",
"> c #696923232BC5",
", c #6A6A23232C41",
"< c #6B6B23232CBC",
"1 c #797928283314",
"2 c #80802B2B3704",
"3 c #88882D2D38E7",
"4 c #89892D2D3962",
"5 c #949431313EC4",
"6 c #969631313EB9",
"7 c #9A9A333340B1",
"8 c #9C9C333340A7",
"9 c #A5A537374512",
"0 c #A6A63737458D",
"q c #A9A938384785",
"w c #B3B33B3B4BE5",
"e c #B5B53C3C4C61",
"r c #B7B73D3D4CDC",
"t c #BFBF414152CD",
"y c #C0C0444454DA",
"u c #C3C34C4C5C7B",
"i c #C4C44F4F5E87",
"p c #FEFEFDFDFE78",
"a c None",
/* pixels */
"aaaaaaaaaaaaaaaaaaaaaaaaaaa",
"------------------;--;**-;a",
"uyyyyyyyyyyyyyyyttttttttio*",
"yeeerrrrrreererrqttettttt ;",
"wqqqqqqqqqqqqqqqqqqqqqqqt -",
"0886888877877878888788889 -",
"644444444pp444pp333333435 ;",
"2111111111pp1pp1111111111 ;",
"><<<><<<,,<ppp<<<<<<>><<< -",
"=;;;;;;--::ppp:-;;;;;;;;= -",
"@XXXXXXXXXppXppXXXXXXXXX@ -",
"OXXXXXXXXppXXXppXXXXXXXXO -",
"@ooooooooooooooooooooooo+ -",
"#@@@@@@@@@@@@@@@@@@@@@@@# -",
"%&%%&&&&%%&&%&&&&%%&&%&&&.-",
" .                      .#-",
"--------------------------a",
"aaaaaaaaaaaaaaaaaaaaaaaaaaa",
"aaaaaaaaaaaaaaaaaaaaaaaaaaa",
"aaaaaaaaaaaaaaaaaaaaaaaaaaa",
"aaaaaaaaaaaaaaaaaaaaaaaaaaa",
"aaaaaaaaaaaaaaaaaaaaaaaaaaa",
"aaaaaaaaaaaaaaaaaaaaaaaaaaa"
};
