/* XPM */
static char *close_inactive[] = {
/* columns rows colors chars-per-pixel */
"27 23 39 1",
"  c black",
". c #08080101015E",
"X c #1F1F040404FB",
"o c #2424050505E7",
"O c #2B2B060606C9",
"+ c #303006060730",
"@ c #3434070708A2",
"# c #39390808098F",
"$ c #3D3D0808097A",
"% c #404009090A71",
"& c #424209090A67",
"* c #55550C0C0E18",
"= c #5B5B0C0C0DF9",
"- c #61610D0D0F61",
"; c #65650E0E0FD2",
": c #67670E0E0FC8",
"> c #737310101298",
", c #75751010128D",
"< c #777710101283",
"1 c #868613131649",
"2 c #8F8F14141721",
"3 c #969615151803",
"4 c #9898151517F9",
"5 c #A4A417171AC9",
"6 c #A6A617171ABE",
"7 c #ABAB18181BAB",
"8 c #ADAD18181BA1",
"9 c #B7B71A1A1E7B",
"0 c #B9B91A1A1E70",
"q c #BBBB1A1A1E66",
"w c #C7C71C1C2035",
"e c #C9C91C1C202A",
"r c #CACA1C1C20A6",
"t c #D7D71E1E22F0",
"y c #DADA1F1F23E6",
"u c #DFDF222226DF",
"i c #DFDF25252A72",
"p c #FBFBE8E8E907",
"a c None",
/* pixels */
"aaaaaaaaaaaaaaaaaaaaaaaaaaa",
"----;;;=;;-;;--;;;;-=;;;;:a",
"uyyyyyyytyyyyyyyyyyyyyyyio*",
"teeerreeeeeeeeeereeeeerrt ;",
"eqqqqqqqqqqqqqqqqqqqqqqqw ;",
"q888888877877878778777889 ;",
"533333344pp433pp443343335 ;",
"2111111111pp1pp1111111112 =",
">>>>>>>>,,>ppp,,,,,,,,>,> -",
"-::::::::::ppp::;:::::;;= -",
"@XXXXXXXXXppXppXXXXXXXXX@ -",
"OXXXXXXXXppXXXppXXXoXXXXO ;",
"+ooooooooooooooooooooooo@ ;",
"#@@@@@@@@@@@@@@@@@@@@@@@@ -",
"$&$&&&&&$&&&$&$&%%%%%%%%$.-",
" .                      .$-",
";-;--;--;--;--;---;--;--;-a",
"aaaaaaaaaaaaaaaaaaaaaaaaaaa",
"aaaaaaaaaaaaaaaaaaaaaaaaaaa",
"aaaaaaaaaaaaaaaaaaaaaaaaaaa",
"aaaaaaaaaaaaaaaaaaaaaaaaaaa",
"aaaaaaaaaaaaaaaaaaaaaaaaaaa",
"aaaaaaaaaaaaaaaaaaaaaaaaaaa"
};
