/* XPM */
static char *close_prelight[] = {
/* columns rows colors chars-per-pixel */
"27 23 39 1",
"  c #13130202022B",
". c #1B1B0303048A",
"X c #3232070707AB",
"o c #373707070913",
"O c #3F3F08080970",
"+ c #444409090A5C",
"@ c #47470A0A0B53",
"# c #4C4C0A0A0BBA",
"$ c #50500B0B0D2C",
"% c #53530B0B0D9D",
"& c #55550C0C0E18",
"* c #68680E0E1144",
"= c #6E6E0F0F11AB",
"- c #75751010128D",
"; c #787811111384",
": c #7A7A1111137A",
"> c #868613131649",
", c #88881313163F",
"< c #8A8A13131635",
"1 c #999915151875",
"2 c #A2A217171AD3",
"3 c #A9A918181BB5",
"4 c #ABAB18181BAB",
"5 c #B7B71A1A1E7B",
"6 c #B9B91A1A1E70",
"7 c #BEBE1B1B1F5D",
"8 c #C0C01B1B1F52",
"9 c #CACA1C1C20A6",
"0 c #CCCC1D1D2121",
"q c #CECE1D1D2117",
"w c #DADA1F1F23E6",
"e c #DCDC1F1F23DC",
"r c #DEDE1F1F23D2",
"t c #E0E02B2B3011",
"y c #E1E12E2E321D",
"u c #E2E235353943",
"i c #E2E239393D5C",
"p c #FEFEFBFBFC6C",
"a c None",
/* pixels */
"aaaaaaaaaaaaaaaaaaaaaaaaaaa",
"-------------------------:a",
"uyyyyyyyyyyyyyyyyyyyyyyyio*",
"teeerreerreererrrrerrrrry -",
"wqqqqqqqqqqqqqqqqqqqqqqqw -",
"q877787777878878777777778 -",
"644444444pp444pp443444437 -",
"2111111111pp1pp1111111112 -",
",,,,,>,>,,>ppp,,,<<<,,,<> -",
"=;:;:;:;::;ppp::;;;;;;:-= -",
"@XXXXXXXXXppXppXXXXXoXXX@ -",
"OXXXXXXXXppXXXppXXXXXXXXO -",
"@ooooooooooooooooooooooo@ -",
"#@@@@@@@@@@@@@@@@@@@@@@@# -",
"%%%%%&&%%%%&%%%&%%%%&%%&%.-",
" .                      .#-",
"--------------------------a",
"aaaaaaaaaaaaaaaaaaaaaaaaaaa",
"aaaaaaaaaaaaaaaaaaaaaaaaaaa",
"aaaaaaaaaaaaaaaaaaaaaaaaaaa",
"aaaaaaaaaaaaaaaaaaaaaaaaaaa",
"aaaaaaaaaaaaaaaaaaaaaaaaaaa",
"aaaaaaaaaaaaaaaaaaaaaaaaaaa"
};
