/* XPM */
static char *hide_prelight[] = {
/* columns rows colors chars-per-pixel */
"27 23 38 1",
"  c #13130202022B",
". c #1B1B0303048A",
"X c #3232070707AB",
"o c #373707070913",
"O c #3F3F08080970",
"+ c #444409090A5C",
"@ c #47470A0A0B53",
"# c #4C4C0A0A0BBA",
"$ c #50500B0B0D2C",
"% c #53530B0B0D9D",
"& c #55550C0C0E18",
"* c #63630E0E0FDD",
"= c #6E6E0F0F11AB",
"- c #7171101012A2",
"; c #75751010128D",
": c #7A7A1111137A",
"> c #838312121553",
", c #858512121548",
"< c #868613131649",
"1 c #88881313163F",
"2 c #969615151803",
"3 c #A2A217171AD3",
"4 c #A7A717171B3A",
"5 c #A9A918181BB5",
"6 c #B7B71A1A1E7B",
"7 c #B9B91A1A1E70",
"8 c #BBBB1A1A1E66",
"9 c #CACA1C1C20A6",
"0 c #CCCC1D1D2121",
"q c #DADA1F1F23E6",
"w c #DCDC1F1F23DC",
"e c #DEDE1F1F23D2",
"r c #E0E02B2B3011",
"t c #E1E12E2E321D",
"y c #E2E235353943",
"u c #E2E239393D5C",
"i c #FEFEFBFBFC6C",
"p c None",
/* pixels */
"ppppppppppppppppppppppppppp",
"p:;;;;;;;;;;;;;;;;;;;;;;;;;",
"*oytttttttttttttttttttttttu",
"; reeeeeeeeeeqeeeeeeeeeeeer",
"; q00000000090000000000000q",
"; 0788888887788888888887879",
"; 7544544555455555554454447",
"; 3222222222222222222222223",
"; 1,>,>>,>>,>>,>,>,,,,>>>>,",
"; =-----------------------=",
"; @XXXXXXXiiiiiiiiXXXXXXXX@",
"; OXXXXXXXiiiiiiiiXXXXXXXX+",
"; @ooooooooooooooooooooooo+",
"; #@@@@@@@@@@@@@@@@@@@@@@@#",
";.%%%%%&&%%%%&%%%&%%%%&%%&%",
";# .                      .",
"p;;;;;;;;;;;;;;;;;;;;;;;;;;",
"ppppppppppppppppppppppppppp",
"ppppppppppppppppppppppppppp",
"ppppppppppppppppppppppppppp",
"ppppppppppppppppppppppppppp",
"ppppppppppppppppppppppppppp",
"ppppppppppppppppppppppppppp"
};
