/* XPM */
static char *hide_pressed[] = {
/* columns rows colors chars-per-pixel */
"27 23 39 1",
"  c black",
". c #0808020202E4",
"X c #1C1C09090B2A",
"o c #22220B0B0E18",
"O c #28280D0D1107",
"+ c #2C2C0E0E1279",
"@ c #2F2F0F0F1370",
"# c #3434111115E3",
"$ c #3737121216D9",
"% c #3A3A131317D0",
"& c #3B3B1313194C",
"* c #494918181EA4",
"= c #52521B1B2289",
"- c #55551C1C2380",
"; c #58581D1D2476",
": c #5C5C1E1E26E9",
"> c #646421212A53",
", c #676722222B4A",
"< c #696923232BC5",
"1 c #6A6A23232C41",
"2 c #76762727311C",
"3 c #80802B2B3704",
"4 c #87872D2D386B",
"5 c #88882D2D38E7",
"6 c #949431313EC4",
"7 c #969631313EB9",
"8 c #979732323FBA",
"9 c #A5A537374512",
"0 c #A6A63737458D",
"q c #A7A737374608",
"w c #B3B33B3B4BE5",
"e c #B5B53C3C4C61",
"r c #B7B73D3D4CDC",
"t c #BFBF414152CD",
"y c #C0C0444454DA",
"u c #C3C34C4C5C7B",
"i c #C4C44F4F5E87",
"p c #FEFEFDFDFE78",
"a c None",
/* pixels */
"aaaaaaaaaaaaaaaaaaaaaaaaaaa",
"a:;;;;;;;;==;;;;;;;;;;;;;;;",
"*ouyttyyytttttyyyyyyytyttti",
"; trrrrrtwtttwwtrrrrrrtwttt",
"; wqqqqqqqq99999qqqqqqqq99t",
"; q78888888866888888887766q",
"; 7544545555455555555444446",
"; 3222222222222222222222222",
"; <,>,>>,>>,>>,>,>,,,,>>,,<",
"; =---------------------=-=",
"; @XXXXXXXppppppppXXXXXXXX@",
"; OXXXXXXXppppppppXXXXXXXXO",
"; @ooooooooooooooooooooooo+",
"; #@@@@@@@@@@@@@@@@@@@@@@@$",
";.%%&%&&&%&%&&%%&&%&%%&&%&%",
";$ .                      .",
"a;;;;;;;;;;;;;;;;;;;;;;;;;;",
"aaaaaaaaaaaaaaaaaaaaaaaaaaa",
"aaaaaaaaaaaaaaaaaaaaaaaaaaa",
"aaaaaaaaaaaaaaaaaaaaaaaaaaa",
"aaaaaaaaaaaaaaaaaaaaaaaaaaa",
"aaaaaaaaaaaaaaaaaaaaaaaaaaa",
"aaaaaaaaaaaaaaaaaaaaaaaaaaa"
};
