/* XPM */
static char *hide_inactive[] = {
/* columns rows colors chars-per-pixel */
"27 23 38 1",
"  c black",
". c #08080101015E",
"X c #1F1F040404FB",
"o c #2424050505E7",
"O c #2B2B060606C9",
"+ c #303006060730",
"@ c #3434070708A2",
"# c #39390808098F",
"$ c #3D3D0808097A",
"% c #404009090A71",
"& c #424209090A67",
"* c #50500B0B0D2C",
"= c #5B5B0C0C0DF9",
"- c #5E5E0D0D0EF0",
"; c #61610D0D0F61",
": c #67670E0E0FC8",
"> c #6F6F0F0F1227",
", c #7171101012A2",
"< c #737310101298",
"1 c #75751010128D",
"2 c #838312121553",
"3 c #8F8F14141721",
"4 c #94941515180E",
"5 c #969615151803",
"6 c #A4A417171AC9",
"7 c #A6A617171ABE",
"8 c #A7A717171B3A",
"9 c #B7B71A1A1E7B",
"0 c #B9B91A1A1E70",
"q c #C7C71C1C2035",
"w c #C9C91C1C202A",
"e c #CACA1C1C20A6",
"r c #D7D71E1E22F0",
"t c #DADA1F1F23E6",
"y c #DFDF222226DF",
"u c #DFDF25252A72",
"i c #FBFBE8E8E907",
"p c None",
/* pixels */
"ppppppppppppppppppppppppppp",
"p:;;-::--:-::--::::--:-::-:",
"*oytttttttttttttttttttttttu",
"; reeeeewwwwwwwqeeeeqeeeeqr",
"; e00000000000000000000090q",
"; 0777777777778888888887879",
"; 7554545555555555444444447",
"; 3222222222222222222222223",
": 1,>,>>>>>,>>,><>,,,,>>><<",
"- =-----------------------=",
"- @XXXXXXXiiiiiiiiXXXXXXXX@",
": OXXXXoXXiiiiiiiiXoXXXXXXO",
"- +ooooooooooooooooooooooo+",
"- #@@@@@@@@@@@@@@@@@@@@@@@#",
":.%%%%%&%%%%%%%%%&%%%%%%%%$",
"-$ .                      .",
"p::--:--:--:--:-;;:-;:-;:-;",
"ppppppppppppppppppppppppppp",
"ppppppppppppppppppppppppppp",
"ppppppppppppppppppppppppppp",
"ppppppppppppppppppppppppppp",
"ppppppppppppppppppppppppppp",
"ppppppppppppppppppppppppppp"
};
