/* XPM */
static char *maximize_active[] = {
/* columns rows colors chars-per-pixel */
"27 23 35 1",
"  c black",
". c #08080101015E",
"X c #1F1F040404FB",
"o c #2424050505E7",
"O c #2B2B060606C9",
"+ c #303006060730",
"@ c #3434070708A2",
"# c #39390808098F",
"$ c #3D3D0808097A",
"% c #404009090A71",
"& c #424209090A67",
"* c #5B5B0C0C0DF9",
"= c #5E5E0D0D0EF0",
"- c #61610D0D0F61",
"; c #6F6F0F0F1227",
": c #7171101012A2",
"> c #737310101298",
", c #75751010128D",
"< c #838312121553",
"1 c #8F8F14141721",
"2 c #94941515180E",
"3 c #969615151803",
"4 c #A4A417171AC9",
"5 c #A6A617171ABE",
"6 c #A7A717171B3A",
"7 c #B7B71A1A1E7B",
"8 c #B9B91A1A1E70",
"9 c #C7C71C1C2035",
"0 c #C9C91C1C202A",
"q c #D7D71E1E22F0",
"w c #DADA1F1F23E6",
"e c #DFDF222226DF",
"r c #DFDF25252A72",
"t c #FBFBE8E8E907",
"y c None",
/* pixels */
"yyyyyyyyyyyyyyyyyyyyyyyyyyy",
"---------------------------",
" ewwwwwwwwwwwwwwwwwewwwwwr ",
" q00000000000000000000000q ",
" 9888888888888888888888889 ",
" 8555555655555554446644457 ",
" 533222233ttttttt323332234 ",
" 1<<<<<<<<ttttttt<<<<<<<<1 ",
" ,:;:;;;;;t;;:;:t>>::;;;>> ",
" *========t=====t========* ",
" @XXXXXXXXtXXXXXtXXXXXXXX@ ",
" OXXXXXoXXtttttttXXXXXXXXO ",
" @ooooooooooooooooooooooo+ ",
" #@@@@@@@@@@@@@@@@@@@@@@@# ",
".&$$%%%%%%&$&&$&&%%%%&%%&%.",
"$ .                      .$",
"y-------------------------y",
"yyyyyyyyyyyyyyyyyyyyyyyyyyy",
"yyyyyyyyyyyyyyyyyyyyyyyyyyy",
"yyyyyyyyyyyyyyyyyyyyyyyyyyy",
"yyyyyyyyyyyyyyyyyyyyyyyyyyy",
"yyyyyyyyyyyyyyyyyyyyyyyyyyy",
"yyyyyyyyyyyyyyyyyyyyyyyyyyy"
};
