/* XPM */
static char *maximize_pressed[] = {
/* columns rows colors chars-per-pixel */
"27 23 36 1",
"  c black",
". c #0808020202E4",
"X c #1C1C09090B2A",
"o c #22220B0B0E18",
"O c #28280D0D1107",
"+ c #2C2C0E0E1279",
"@ c #2F2F0F0F1370",
"# c #3434111115E3",
"$ c #3737121216D9",
"% c #3A3A131317D0",
"& c #3B3B1313194C",
"* c #52521B1B2289",
"= c #55551C1C2380",
"- c #58581D1D2476",
"; c #646421212A53",
": c #676722222B4A",
"> c #696923232BC5",
", c #6A6A23232C41",
"< c #76762727311C",
"1 c #80802B2B3704",
"2 c #87872D2D386B",
"3 c #88882D2D38E7",
"4 c #949431313EC4",
"5 c #969631313EB9",
"6 c #979732323FBA",
"7 c #A5A537374512",
"8 c #A6A63737458D",
"9 c #A7A737374608",
"0 c #B3B33B3B4BE5",
"q c #B5B53C3C4C61",
"w c #BFBF414152CD",
"e c #C0C0444454DA",
"r c #C3C34C4C5C7B",
"t c #C4C44F4F5E87",
"y c #FEFEFDFDFE78",
"u c None",
/* pixels */
"uuuuuuuuuuuuuuuuuuuuuuuuuuu",
"---------------------------",
" reeeeeeeeeeeeeeeeeeeeeeet ",
" wqqqqqqqqqqqqqqqqqqqqqqqe ",
" 0899989999999999999999980 ",
" 8555555655565555555555558 ",
" 532322233yyyyyyy322333225 ",
" 1<<<<<<<<yyyyyyy<<<<<<<<1 ",
" >:;:;;;;;y;;;;>y::::;;;>> ",
" *========y=====y========* ",
" @XXXXXXXXyXXXXXyXXXXXXXX@ ",
" OXXXXXXXXyyyyyyyXXXXXXXXO ",
" +ooooooooooooooooooooooo+ ",
" #@@@@@@@@@@@@@@@@@@@@@@@# ",
".%%%%%&&%%%%&%%%&%%%%&%%&&.",
"$ .                      .#",
"u-------------------------u",
"uuuuuuuuuuuuuuuuuuuuuuuuuuu",
"uuuuuuuuuuuuuuuuuuuuuuuuuuu",
"uuuuuuuuuuuuuuuuuuuuuuuuuuu",
"uuuuuuuuuuuuuuuuuuuuuuuuuuu",
"uuuuuuuuuuuuuuuuuuuuuuuuuuu",
"uuuuuuuuuuuuuuuuuuuuuuuuuuu"
};
