/* XPM */
static char *maximize_prelight[] = {
/* columns rows colors chars-per-pixel */
"27 23 35 1",
"  c #13130202022B",
". c #1B1B0303048A",
"X c #3232070707AB",
"o c #373707070913",
"O c #3F3F08080970",
"+ c #444409090A5C",
"@ c #47470A0A0B53",
"# c #4C4C0A0A0BBA",
"$ c #50500B0B0D2C",
"% c #53530B0B0D9D",
"& c #55550C0C0E18",
"* c #6E6E0F0F11AB",
"= c #7171101012A2",
"- c #75751010128D",
"; c #838312121553",
": c #858512121548",
"> c #868613131649",
", c #88881313163F",
"< c #969615151803",
"1 c #A2A217171AD3",
"2 c #A7A717171B3A",
"3 c #A9A918181BB5",
"4 c #B7B71A1A1E7B",
"5 c #B9B91A1A1E70",
"6 c #BBBB1A1A1E66",
"7 c #CACA1C1C20A6",
"8 c #CCCC1D1D2121",
"9 c #DADA1F1F23E6",
"0 c #DCDC1F1F23DC",
"q c #E0E02B2B3011",
"w c #E1E12E2E321D",
"e c #E2E235353943",
"r c #E2E239393D5C",
"t c #FEFEFBFBFC6C",
"y c None",
/* pixels */
"yyyyyyyyyyyyyyyyyyyyyyyyyyy",
"---------------------------",
" ewwwwwwwwwwwwwwwwwwwwwwwr ",
" q00000000000000000000000q ",
" 9888888888888888888888880 ",
" 8555555655555555555555557 ",
" 532222223ttttttt322332224 ",
" 1<<<<<<<<ttttttt<<<<<<<<1 ",
" ,:;:;;;:;t;;:;:t::::;;;:: ",
" *========t=====t========* ",
" @XXXXXXXXtXXXXXtXXXXXXXX@ ",
" OXXXXXXXXtttttttXXXXXXXX+ ",
" @ooooooooooooooooooooooo@ ",
" #@@@@@@@@@@@@@@@@@@@@@@@@ ",
".%%%%%&&%%%%&%%%&%%%%&%%&&.",
"# .                      .#",
"y-------------------------y",
"yyyyyyyyyyyyyyyyyyyyyyyyyyy",
"yyyyyyyyyyyyyyyyyyyyyyyyyyy",
"yyyyyyyyyyyyyyyyyyyyyyyyyyy",
"yyyyyyyyyyyyyyyyyyyyyyyyyyy",
"yyyyyyyyyyyyyyyyyyyyyyyyyyy",
"yyyyyyyyyyyyyyyyyyyyyyyyyyy"
};
