/* XPM */
static char *menu_active[] = {
/* columns rows colors chars-per-pixel */
"27 24 35 1",
"  c #9C9C000002E4",
". c #9E9E000003DB",
"X c #C7C70000048A",
"o c #A7A70000042D",
"O c #A9A900000423",
"+ c #91910000039D",
"@ c #8F8F000003A7",
"# c #8E8E0000032C",
"$ c #8787000003D1",
"% c #868600000254",
"& c #84840000025F",
"* c #777700000322",
"= c #7A7A00000292",
"- c #6E6E000001CF",
"; c #7272000002BB",
": c #62620000020C",
"> c #636300000288",
", c #5F5F0000029C",
"< c #5757000001C4",
"1 c #4F4F000001ED",
"2 c #4E4E00000172",
"3 c #4242000000AF",
"4 c #43430000022B",
"5 c #3F3F0000013F",
"6 c #3D3D00000149",
"7 c #1F1F000000E2",
"8 c #2121000000D8",
"9 c #1D1D000000EC",
"0 c #1B1B000000F7",
"q c #2323000000CE",
"w c #2525000000C3",
"e c #2929000000AF",
"r c #2B2B000000A4",
"t c #2727000000B9",
"y c #2D2D0000019B",
/* pixels */
"                   ...   ..",
"XXXXXXXXXXXXXXXXXXXXXXXXXXX",
"ooooooOOOoooooooooooOOOOOOO",
"...........................",
"+++++++++@@@@@++++++@@@@@##",
"$%%$$$$%%%%%$$%%%$$$$%$%&%%",
"*********==****************",
"-;-------------------------",
":::>>>::::::::::,,:::::,,::",
"<<<<<<<<<<<<<<<<<<<<<<<<<<<",
"122112222222222222222222122",
"344344333444333333333333333",
"555555556555565555555555555",
"787777777777777777777777777",
"979099999900079000000099099",
"777777777787777788888777777",
"7778777778888778q8888877887",
"78888q888qqqqqqqqqqqqqqqq8q",
"qqqqqqqqqqqqqqqqqqqqqqqqqqq",
"qqqqqqqqqqqqqqqqqqqwwwwwwwq",
"qqqqqqqwwwewwweeeeeeeeeeeee",
"wweeeeeereeeeeeeeeeeeeeeere",
"eeettereeerrrrrryrrryrrrrrr",
"8777888888q8q8qqqqwqwqqqqqq"
};
