/* XPM */
static char *right_inactive[] = {
/* columns rows colors chars-per-pixel */
"6 9 14 1",
"  c #2121000000D8",
". c #222200000052",
"X c #2929000000AF",
"o c #2E2E00000217",
"O c #30300000010B",
"+ c #5C5C0000032C",
"@ c #5D5D000002A6",
"# c #5E5E00000221",
"$ c #8A8A00000341",
"% c #8C8C00000235",
"& c #8C8C00000336",
"* c #8B8B000003BC",
"= c #AAAA0000029C",
"- c #AAAA0000049E",
/* pixels */
"X O@*-",
"X O@*-",
"X o@*-",
"X o@$-",
"X o@%=",
"X o@$-",
" .o@%-",
"X.o@*=",
". O#%-"
};
