/* XPM */
static char *shade_prelight[] = {
/* columns rows colors chars-per-pixel */
"27 24 31 1",
"  c #1B1B000000F7",
". c #1F1F000000E2",
"X c #2121000000D8",
"o c #2525000000C3",
"O c #2B2B000000A4",
"+ c #2D2D0000019B",
"@ c #3F3F0000013F",
"# c #4242000000AF",
"$ c #43430000022B",
"% c #4E4E00000172",
"& c #4F4F000001ED",
"* c #5757000001C4",
"= c #5F5F0000029C",
"- c #62620000020C",
"; c #636300000288",
": c #6E6E000001CF",
"> c #7272000002BB",
", c #777700000322",
"< c #7A7A00000292",
"1 c #84840000025F",
"2 c #868600000254",
"3 c #8787000003D1",
"4 c #8E8E0000032C",
"5 c #8F8F000003A7",
"6 c #91910000039D",
"7 c #9C9C000002E4",
"8 c #9E9E000003DB",
"9 c #A7A70000042D",
"0 c #A9A900000423",
"q c #C7C70000048A",
"w c gray90",
/* pixels */
"777777777777777777788877788",
"qqqqqqqqqqqqqqqqqqqqqqqqqqq",
"999999000999999999990000000",
"888888888888888888888888888",
"666666666555556666665555554",
"322333322222332223333233122",
",,,,,,,,,<<,,,,,,,,,,,,,,,,",
":>:::::::::::::::::::::::::",
";;;;;-----------==-----=--;",
"***************************",
"%%&&%%%%%%%%%%%%%%%%%%%%%%%",
"#$$########wwwww###########",
"@@@@@@@@@@@@www#@@@@@@@@@@@",
".X..........Xw.............",
" ..  ..  .   ..        . ..",
"................XXX........",
"..XX.X..XXXXX..XXXXXXX..XXX",
".XXXXXXXXXXooXoXXooXXooXXXX",
"XXoXXoXoXoXoXoXooXoooXXoXoX",
"XoXooXoXoXoXoXoXXoXoooooooX",
"XXXXXXXoXoOooXoOOooOOOOoOoO",
"ooOOOOOOOOOoOOOOOOOOOoOOOOO",
"OOOooOOOOOOOOO+OOO+O++OO+O+",
"X...XXX.XXXXXXXXXXoXoXXXXoX"
};
