/* XPM */
static char *top_right_inactive[] = {
/* columns rows colors chars-per-pixel */
"6 24 83 1",
"  c #1F1F000001E3",
". c #20200000005D",
"X c #212100290000",
"o c #222200000052",
"O c #222200AF0000",
"+ c #2525000000C3",
"@ c #26260000003E",
"# c #26260000013F",
"$ c #2727000000B9",
"% c #262600000240",
"& c #2727000001BA",
"* c #2E2E00000116",
"= c #2F2F00000090",
"- c #2D2D0000029C",
"; c #2E2E00000217",
": c #30300000010B",
"> c #33330000017C",
", c #3B3B00000052",
"< c #3E3E000001C4",
"1 c #4242000001B0",
"2 c #4444000001A5",
"3 c #4F4F000001ED",
"4 c #5151000000E2",
"5 c #52520000025F",
"6 c #545400000153",
"7 c #585800000341",
"8 c #5A5A00000235",
"9 c #5B5B000001B0",
"0 c #5C5C0000032C",
"q c #5D5D000002A6",
"w c #5E5E00000221",
"e c #5F5F0000019B",
"r c #646400000303",
"t c #6868000002EE",
"y c #717100000240",
"u c #737300000235",
"i c #797900000116",
"p c #7D7D00000202",
"a c #7F7F000001F8",
"s c #7E7E0000037E",
"d c #7A7A00000494",
"f c #8787000000CE",
"g c #84840000025F",
"h c #868600000254",
"j c #8B8B000001BA",
"k c #8A8A00000341",
"l c #8B8B000002BB",
"z c #8C8C00000336",
"x c #8D8D000002B1",
"c c #8E8E0000022B",
"v c #8989000003C6",
"b c #8989000004C7",
"n c #8B8B000003BC",
"m c #909000000322",
"M c #94940000030D",
"N c #94940000040E",
"B c #959500000389",
"V c #94940000050F",
"C c #97970000047F",
"Z c #999900000273",
"A c #9A9A000001ED",
"S c #9B9B00000269",
"D c #9E9E000002DA",
"F c #A1A10000034B",
"G c #A2A2000001C4",
"H c #A5A500000134",
"J c #A4A4000002BB",
"K c #A6A6000001B0",
"L c #A7A70000022B",
"P c #A0A0000003D1",
"I c #A1A10000044C",
"U c #A8A8000002A6",
"Y c #A9A900000322",
"T c #AAAA0000029C",
"R c #A9A900000524",
"E c #AAAA0000039D",
"W c #ABAB00000419",
"Q c #AAAA0000059F",
"! c #BDBD000002BB",
"~ c #C1C1000002A6",
"^ c #C4C400000318",
"/ c #C3C30000039D",
"( c None",
/* pixels */
"SS((((",
"^/~!((",
"WWWWG(",
"PPPDD(",
"VVVVMV",
"bbxxxm",
"dsgggS",
"yuiggG",
"rrtyyH",
"88eeuH",
"4436pT",
"11<4kH",
",>>8xT",
"%O-0kT",
"%O-ekT",
"%O-ekT",
"%O-ehW",
"%O-ebW",
"%O-ekT",
"%O-ekW",
"% -ekW",
"% >ekT",
"% -ekT",
"% -ekW"
};
